<svg width="725" height="193" viewBox="0 0 725 193" fill="none" xmlns="http://www.w3.org/2000/svg">
<path d="M60 192.18C50.2667 192.18 40 189.713 29.2 184.78C18.5333 179.847 8.79999 172.78 -6.13928e-06 163.58L21.4 138.38C28.8667 154.247 36.8 166.18 45.2 174.18C53.6 182.18 61.7333 186.18 69.6 186.18C75.0667 186.18 80 183.98 84.4 179.58C88.8 175.18 92.2 168.78 94.6 160.38C97.1333 151.98 98.4 142.113 98.4 130.78C98.4 120.38 96.6 110.447 93 100.98C89.5333 91.5133 83.9333 83.7133 76.2 77.5799C68.6 71.4466 59.0667 68.3799 47.6 68.3799C42.8 68.2466 38 68.7799 33.2 69.9799C28.5333 71.1799 21.3333 73.5799 11.6 77.1799L28.2 6.37992H116V38.3799H24.6L16.8 70.5799C28.8 65.9133 37.9333 62.7799 44.2 61.1799C50.6 59.5799 57.2667 58.7799 64.2 58.7799C76.6 58.7799 87.4667 61.5799 96.8 67.1799C106.267 72.6466 113.533 80.1133 118.6 89.5799C123.667 98.9133 126.2 109.18 126.2 120.38C126.2 135.98 122.933 149.18 116.4 159.98C110 170.78 101.733 178.847 91.6 184.18C81.4667 189.513 70.9333 192.18 60 192.18ZM205.919 192.18C190.985 192.18 178.319 189.647 167.919 184.58C157.519 179.38 149.719 172.647 144.519 164.38C139.319 156.113 136.719 147.313 136.719 137.98C136.719 130.513 138.452 123.447 141.919 116.78C145.385 109.98 150.652 104.18 157.719 99.3799C164.919 94.5799 173.652 91.3133 183.919 89.5799C177.252 89.5799 170.985 87.7133 165.119 83.9799C159.385 80.2466 154.719 75.1133 151.119 68.5799C147.652 62.0466 145.919 54.7799 145.919 46.7799C145.919 38.3799 148.319 30.7133 153.119 23.7799C157.919 16.8466 164.852 11.3799 173.919 7.37992C182.985 3.24659 193.652 1.17992 205.919 1.17992C218.185 1.17992 228.785 3.24659 237.719 7.37992C246.785 11.3799 253.719 16.8466 258.519 23.7799C263.319 30.7133 265.719 38.3799 265.719 46.7799C265.719 54.7799 263.985 62.0466 260.519 68.5799C257.052 75.1133 252.385 80.2466 246.519 83.9799C240.785 87.7133 234.585 89.5799 227.919 89.5799C237.785 91.1799 246.052 94.3799 252.719 99.1799C259.519 103.847 264.585 109.513 267.919 116.18C271.252 122.713 272.919 129.713 272.919 137.18C272.919 146.513 270.385 155.38 265.319 163.78C260.252 172.18 252.652 179.047 242.519 184.38C232.519 189.58 220.319 192.18 205.919 192.18ZM205.919 86.5799C211.252 86.5799 215.985 84.7133 220.119 80.9799C224.252 77.2466 227.452 72.3133 229.719 66.1799C232.119 60.0466 233.319 53.5133 233.319 46.5799C233.319 38.8466 232.185 31.8466 229.919 25.5799C227.652 19.1799 224.385 14.1799 220.119 10.5799C215.985 6.97992 211.185 5.17993 205.719 5.17993C197.185 5.17993 190.385 8.97993 185.319 16.5799C180.385 24.1799 177.919 33.7799 177.919 45.3799C177.919 52.4466 179.119 59.1799 181.519 65.5799C183.919 71.8466 187.252 76.9133 191.519 80.7799C195.785 84.6466 200.585 86.5799 205.919 86.5799ZM205.519 187.78C212.719 187.78 218.985 185.713 224.319 181.58C229.652 177.447 233.719 171.847 236.519 164.78C239.452 157.58 240.919 149.58 240.919 140.78C240.919 132.513 239.452 124.647 236.519 117.18C233.585 109.713 229.452 103.647 224.119 98.9799C218.785 94.3133 212.719 91.9799 205.919 91.9799C198.585 91.9799 192.052 94.2466 186.319 98.7799C180.719 103.313 176.385 109.313 173.319 116.78C170.252 124.247 168.719 132.047 168.719 140.18C168.719 148.98 170.185 157.047 173.119 164.38C176.185 171.58 180.452 177.313 185.919 181.58C191.519 185.713 198.052 187.78 205.519 187.78ZM355.137 192.18C340.204 192.18 327.537 189.647 317.137 184.58C306.737 179.38 298.937 172.647 293.737 164.38C288.537 156.113 285.937 147.313 285.937 137.98C285.937 130.513 287.671 123.447 291.137 116.78C294.604 109.98 299.871 104.18 306.937 99.3799C314.137 94.5799 322.871 91.3133 333.137 89.5799C326.471 89.5799 320.204 87.7133 314.337 83.9799C308.604 80.2466 303.937 75.1133 300.337 68.5799C296.871 62.0466 295.137 54.7799 295.137 46.7799C295.137 38.3799 297.537 30.7133 302.337 23.7799C307.137 16.8466 314.071 11.3799 323.137 7.37992C332.204 3.24659 342.871 1.17992 355.137 1.17992C367.404 1.17992 378.004 3.24659 386.938 7.37992C396.004 11.3799 402.937 16.8466 407.737 23.7799C412.537 30.7133 414.938 38.3799 414.938 46.7799C414.938 54.7799 413.204 62.0466 409.737 68.5799C406.271 75.1133 401.604 80.2466 395.737 83.9799C390.004 87.7133 383.804 89.5799 377.137 89.5799C387.004 91.1799 395.271 94.3799 401.938 99.1799C408.738 103.847 413.804 109.513 417.137 116.18C420.471 122.713 422.138 129.713 422.138 137.18C422.138 146.513 419.604 155.38 414.538 163.78C409.471 172.18 401.871 179.047 391.738 184.38C381.737 189.58 369.537 192.18 355.137 192.18ZM355.137 86.5799C360.471 86.5799 365.204 84.7133 369.337 80.9799C373.471 77.2466 376.671 72.3133 378.937 66.1799C381.337 60.0466 382.538 53.5133 382.538 46.5799C382.538 38.8466 381.404 31.8466 379.137 25.5799C376.871 19.1799 373.604 14.1799 369.337 10.5799C365.204 6.97992 360.404 5.17993 354.937 5.17993C346.404 5.17993 339.604 8.97993 334.537 16.5799C329.604 24.1799 327.137 33.7799 327.137 45.3799C327.137 52.4466 328.337 59.1799 330.737 65.5799C333.137 71.8466 336.471 76.9133 340.737 80.7799C345.004 84.6466 349.804 86.5799 355.137 86.5799ZM354.737 187.78C361.937 187.78 368.204 185.713 373.537 181.58C378.871 177.447 382.937 171.847 385.737 164.78C388.671 157.58 390.137 149.58 390.137 140.78C390.137 132.513 388.671 124.647 385.737 117.18C382.804 109.713 378.671 103.647 373.337 98.9799C368.004 94.3133 361.937 91.9799 355.137 91.9799C347.804 91.9799 341.271 94.2466 335.537 98.7799C329.937 103.313 325.604 109.313 322.537 116.78C319.471 124.247 317.937 132.047 317.937 140.18C317.937 148.98 319.404 157.047 322.337 164.38C325.404 171.58 329.671 177.313 335.137 181.58C340.737 185.713 347.271 187.78 354.737 187.78ZM542.496 129.96C542.016 143.88 539.136 155.46 533.856 164.7C528.696 173.82 522.336 180.54 514.776 184.86C507.336 189.06 499.716 191.16 491.916 191.16C481.116 191.16 471.156 188.34 462.036 182.7C452.916 176.94 445.656 168.66 440.256 157.86C434.856 147.06 432.156 134.28 432.156 119.52C432.156 105.6 435.096 93.3599 440.976 82.7999C446.856 72.2399 455.256 64.0799 466.176 58.3199C477.216 52.5599 490.236 49.6799 505.236 49.6799C513.036 49.6799 519.696 50.6999 525.216 52.7399C530.736 54.7799 534.816 57.4799 537.456 60.8399C540.216 64.0799 541.596 67.5599 541.596 71.2799C541.596 77.9999 538.536 83.6999 532.416 88.3799C526.416 93.0599 518.676 96.5999 509.196 98.9999C499.716 101.28 489.936 102.42 479.856 102.42C474.096 102.42 468.636 102.06 463.476 101.34C462.276 107.46 461.676 114.24 461.676 121.68C461.676 134.88 463.596 146.28 467.436 155.88C471.396 165.36 476.496 172.56 482.736 177.48C488.976 182.28 495.576 184.68 502.536 184.68C508.776 184.68 514.656 182.64 520.176 178.56C525.696 174.36 530.196 168.18 533.676 160.02C537.156 151.74 539.076 141.72 539.436 129.96H542.496ZM503.616 53.9999C493.656 53.9999 485.256 58.0799 478.416 66.2399C471.576 74.2799 466.776 84.8399 464.016 97.9199C468.336 98.1599 471.456 98.2799 473.376 98.2799C482.376 98.2799 490.356 97.1399 497.316 94.8599C504.396 92.5799 509.916 89.3399 513.876 85.1399C517.836 80.9399 519.816 76.0799 519.816 70.5599C519.816 65.9999 518.256 62.0999 515.136 58.8599C512.136 55.6199 508.296 53.9999 503.616 53.9999ZM589.548 191.34C581.148 191.34 573.228 189.6 565.788 186.12C558.348 182.52 552.348 177.36 547.788 170.64C543.348 163.8 541.128 155.7 541.128 146.34C541.128 143.1 541.368 140.04 541.848 137.16H567.768C567.288 140.16 567.048 143.46 567.048 147.06C567.048 155.58 568.608 162.84 571.728 168.84C574.848 174.84 578.868 179.34 583.788 182.34C588.708 185.34 593.748 186.84 598.908 186.84C604.908 186.84 610.008 184.98 614.208 181.26C618.408 177.42 620.508 172.08 620.508 165.24C620.508 159.72 618.888 154.74 615.648 150.3C612.408 145.74 608.448 141.78 603.768 138.42C599.088 134.94 592.668 130.68 584.508 125.64C576.108 120.6 569.328 116.22 564.168 112.5C559.128 108.66 554.808 104.22 551.208 99.1799C547.728 94.0199 545.988 88.2599 545.988 81.8999C545.988 74.8199 547.848 68.8799 551.568 64.0799C555.408 59.2799 560.448 55.6799 566.688 53.2799C572.928 50.8799 579.648 49.6799 586.848 49.6799C594.648 49.6799 601.908 51.0599 608.628 53.8199C615.468 56.4599 620.928 60.4199 625.008 65.6999C629.208 70.8599 631.308 77.0999 631.308 84.4199C631.308 87.0599 631.068 89.5199 630.588 91.7999H606.468C606.948 89.2799 607.188 86.5199 607.188 83.5199C607.188 76.9199 605.928 71.3399 603.408 66.7799C601.008 62.0999 597.828 58.6199 593.868 56.3399C590.028 53.9399 586.008 52.7399 581.808 52.7399C577.008 52.7399 572.928 54.1199 569.568 56.8799C566.328 59.5199 564.708 63.2399 564.708 68.0399C564.708 72.4799 566.088 76.4999 568.848 80.0999C571.608 83.6999 575.028 86.9399 579.108 89.8199C583.308 92.6999 589.068 96.2999 596.388 100.62C605.388 105.9 612.588 110.58 617.988 114.66C623.508 118.62 628.188 123.54 632.028 129.42C635.988 135.18 637.968 141.78 637.968 149.22C637.968 158.22 635.688 165.9 631.128 172.26C626.568 178.62 620.568 183.42 613.128 186.66C605.808 189.78 597.948 191.34 589.548 191.34ZM690.266 191.34C683.426 191.34 676.886 189.72 670.646 186.48C664.406 183.12 659.306 178.08 655.346 171.36C651.506 164.64 649.586 156.54 649.586 147.06V55.9799H638.786V52.9199H649.586V-6.81877e-05H652.646C652.646 11.8799 654.986 22.3199 659.666 31.3199C664.346 40.3199 670.586 47.5199 678.386 52.9199H710.246V55.9799H678.386V159.48C678.386 168.36 680.186 175.08 683.786 179.64C687.506 184.08 692.066 186.3 697.466 186.3C701.426 186.3 705.266 185.16 708.986 182.88C712.706 180.48 715.706 177.18 717.986 172.98C720.386 168.66 721.586 163.8 721.586 158.4H724.646C724.646 165.36 723.026 171.3 719.786 176.22C716.666 181.14 712.466 184.92 707.186 187.56C701.906 190.08 696.266 191.34 690.266 191.34Z" fill="black"/>
</svg>
