<svg width="32" height="32" viewBox="0 0 32 32" fill="none" xmlns="http://www.w3.org/2000/svg">
<rect width="32" height="32" rx="4" fill="#051826"/>
<path d="M23.0189 19.7006C23.0189 20.187 22.8008 20.5982 22.3495 20.9568C21.8907 21.3178 21.3491 21.4983 20.7349 21.4983H19.7746C19.1403 21.4983 18.6087 21.3203 18.1524 20.9568C17.7087 20.5957 17.493 20.1845 17.493 19.7006V19.5627H14.5095V19.7006C14.5095 20.1845 14.2938 20.5957 13.8501 20.9568C13.4038 21.3153 12.8572 21.4983 12.2254 21.4983H11.2651C10.6484 21.4983 10.1043 21.3153 9.64799 20.9568C9.20171 20.5957 8.98358 20.1845 8.98358 19.7006V7.49553H6V19.7006C6 20.36 6.14041 20.9893 6.41369 21.571C6.68698 22.1577 7.06556 22.6717 7.53943 23.1054C8.0183 23.5392 8.57992 23.8852 9.20923 24.1284C9.84856 24.3791 10.5406 24.5045 11.2651 24.5045H12.2254C12.9876 24.5045 13.7147 24.3641 14.3841 24.0858C15.0034 23.83 15.5474 23.4765 16.0038 23.0352C16.4751 23.474 17.0217 23.8275 17.6309 24.0858C18.2903 24.3641 19.0099 24.5045 19.7746 24.5045H20.7349C21.4594 24.5045 22.1514 24.3766 22.7908 24.1284C23.4301 23.8802 23.9917 23.5367 24.4606 23.1054C24.9344 22.6742 25.3155 22.1577 25.5863 21.5735C25.8596 20.9919 26 20.3625 26 19.7031V7.49804H23.0189V19.7006Z" fill="white"/>
<path d="M17.493 12.7156H14.507V17.0732H17.493V12.7156Z" fill="white"/>
</svg>
