<svg width="314" height="46" viewBox="0 0 314 46" fill="none" xmlns="http://www.w3.org/2000/svg">
<path d="M35.4197 4.26834H0V7.64927H35.4197V4.26834Z" fill="white"/>
<path d="M35.4197 8.74181H0V12.1227H35.4197V8.74181Z" fill="white"/>
<path d="M35.4197 13.758H0V17.1389H35.4197V13.758Z" fill="white"/>
<path d="M35.4197 18.2317H0V21.6127H35.4197V18.2317Z" fill="white"/>
<path d="M10.1716 41.8817H5.39389V45.2626H10.1716V41.8817Z" fill="white"/>
<path d="M10.3277 29.4587H0.772308V32.8397H10.3277V29.4587Z" fill="white"/>
<path d="M10.3277 35.6705H0.772308V39.0514H10.3277V35.6705Z" fill="white"/>
<path d="M35.4197 23.2473H24.3156V26.6282H35.4197V23.2473Z" fill="white"/>
<path d="M23.6707 40.6818L21.7358 43.4671L18.7698 41.4295L17.9399 40.8626L15.8859 39.4535C16.0625 38.9441 16.2104 38.443 16.3255 37.95V35.6454L18.9505 37.4447L19.731 37.9787L23.6707 40.6818Z" fill="white"/>
<path d="M29.9395 29.2866L33.0904 34.7052L30.1367 36.3977L26.99 30.9792L29.9395 29.2866Z" fill="white"/>
<path d="M17.069 0L20.2199 5.41852L17.2703 7.10693L14.1194 1.69252L17.069 0Z" fill="white"/>
<path d="M27.7253 23.2473H24.3156V45.2993H27.7253V23.2473Z" fill="white"/>
<path d="M35.4197 23.2473H32.01V45.2993H35.4197V23.2473Z" fill="white"/>
<path d="M23.264 23.2473H12.1599V26.6282H23.264V23.2473Z" fill="white"/>
<path d="M15.5696 23.2473H12.1599V37.6542H15.5696V23.2473Z" fill="white"/>
<path d="M23.2598 23.2473H19.8501V37.6542H23.2598V23.2473Z" fill="white"/>
<path d="M11.1041 23.2473H0V26.6282H11.1041V23.2473Z" fill="white"/>
<path d="M3.40969 23.2473H0V45.2993H3.40969V23.2473Z" fill="white"/>
<path d="M11.1041 23.2473H7.6944V45.2993H11.1041V23.2473Z" fill="white"/>
<path d="M3.40969 4.26834H0V12.1229H3.40969V4.26834Z" fill="white"/>
<path d="M3.40969 13.758H0V21.6126H3.40969V13.758Z" fill="white"/>
<path d="M35.4197 13.758H32.01V21.6126H35.4197V13.758Z" fill="white"/>
<path d="M19.1066 28.2634V37.7736C19.1025 37.7818 19.1025 37.7941 19.1025 37.8023C19.0819 37.9379 19.0532 38.0776 19.0285 38.2172C18.8478 39.1991 18.6136 40.2138 18.3014 41.2531C18.2644 41.3804 18.2234 41.5078 18.1823 41.6351C18.0673 41.9966 17.944 42.3623 17.8043 42.732C17.4552 43.6809 17.1101 44.4779 16.6993 45.2954H13.2896C14.0003 44.1534 14.6247 42.9045 15.1875 41.3722C15.4011 40.7971 15.5983 40.222 15.7709 39.6592C15.8119 39.5318 15.8489 39.4045 15.8859 39.2771C16.0338 38.7677 16.157 38.2665 16.2556 37.7736V28.2634H19.1066Z" fill="white"/>
<path d="M307.244 3.67193V34.6973C307.244 35.0794 307.171 35.3717 307.031 35.5403C306.907 35.6865 306.755 35.7539 306.53 35.7539C306.356 35.7539 306.171 35.6021 306.047 35.4729C305.783 35.2087 305.513 34.8659 305.243 34.4443L289.568 9.04517C288.399 7.13419 287.224 5.65599 286.083 4.64429C284.869 3.57077 283.329 3.02558 281.497 3.02558C278.9 3.02558 277 3.84055 275.848 5.44802C274.735 6.99929 274.173 8.89903 274.173 11.1079V41.6386H280.929V10.8156C280.929 10.3716 281.008 10.0288 281.159 9.79269C281.221 9.69152 281.356 9.55663 281.744 9.55663C281.957 9.55663 282.098 9.62969 282.222 9.79269C282.424 10.0737 282.694 10.4728 283.031 11.0124L299.049 36.805C300.055 38.4237 301.14 39.7389 302.27 40.7168C303.461 41.751 305.047 42.2793 306.974 42.2793C309.262 42.2793 311.032 41.5487 312.23 40.1098C313.404 38.7047 314 36.8274 314 34.5399V3.6607H307.244V3.67193Z" fill="white"/>
<path d="M234.492 30.9539C234.492 32.0443 234.003 32.966 232.991 33.7698C231.963 34.5791 230.749 34.9838 229.372 34.9838H227.219C225.797 34.9838 224.606 34.5847 223.583 33.7698C222.588 32.9604 222.104 32.0387 222.104 30.9539V30.6448H215.416V30.9539C215.416 32.0387 214.933 32.9604 213.938 33.7698C212.937 34.5735 211.712 34.9838 210.296 34.9838H208.143C206.76 34.9838 205.541 34.5735 204.518 33.7698C203.517 32.9604 203.028 32.0387 203.028 30.9539V3.59315H196.34V30.9539C196.34 32.4321 196.655 33.8428 197.267 35.1468C197.88 36.462 198.729 37.6142 199.791 38.5866C200.865 39.5589 202.124 40.3346 203.534 40.8797C204.968 41.4418 206.519 41.7228 208.143 41.7228H210.296C212.004 41.7228 213.634 41.4081 215.135 40.7842C216.523 40.2109 217.743 39.4184 218.766 38.4292C219.823 39.4128 221.048 40.2053 222.414 40.7842C223.892 41.4081 225.505 41.7228 227.219 41.7228H229.372C230.996 41.7228 232.547 41.4362 233.981 40.8797C235.414 40.3233 236.673 39.5533 237.724 38.5866C238.786 37.6198 239.641 36.462 240.248 35.1524C240.86 33.8485 241.175 32.4377 241.175 30.9595V3.59878H234.492V30.9539Z" fill="white"/>
<path d="M261.038 3.59315H254.316V41.7228H261.038V3.59315Z" fill="white"/>
<path d="M222.104 15.2953H215.41V25.0638H222.104V15.2953Z" fill="white"/>
<path d="M164.438 34.6916C164.438 35.0738 164.365 35.3661 164.224 35.5347C164.101 35.6808 163.949 35.7483 163.724 35.7483C163.55 35.7483 163.364 35.5965 163.241 35.4673C162.977 35.2031 162.707 34.8602 162.437 34.4387L146.761 9.03952C145.592 7.12854 144.418 5.65034 143.277 4.63865C142.063 3.56513 140.523 3.01994 138.69 3.01994C136.094 3.01994 134.194 3.83492 133.042 5.44239C131.929 6.99366 131.367 8.89339 131.367 11.1023V41.633H138.123V10.8156C138.123 10.3716 138.201 10.0287 138.353 9.79267C138.415 9.6915 138.55 9.55661 138.938 9.55661C139.151 9.55661 139.292 9.62968 139.415 9.79267C139.618 10.0737 139.888 10.4728 140.225 11.0123L156.243 36.8049C157.249 38.4237 158.334 39.7388 159.464 40.7168C160.655 41.751 162.24 42.2793 164.168 42.2793C166.456 42.2793 168.226 41.5487 169.423 40.1098C170.598 38.7047 171.194 36.8274 171.194 34.5399V3.66068H164.438V34.6916Z" fill="white"/>
<path d="M91.6916 30.9539C91.6916 32.0443 91.2026 32.966 90.1909 33.7698C89.1623 34.5791 87.9483 34.9838 86.5713 34.9838H84.4186C82.9966 34.9838 81.8051 34.5847 80.7821 33.7698C79.7873 32.9604 79.3039 32.0387 79.3039 30.9539V30.6448H72.6155V30.9539C72.6155 32.0387 72.1322 32.9604 71.1373 33.7698C70.1369 34.5735 68.9116 34.9838 67.4952 34.9838H65.3426C63.9599 34.9838 62.7403 34.5735 61.7173 33.7698C60.7169 32.9604 60.2279 32.0387 60.2279 30.9539V3.59315H53.5395V30.9539C53.5395 32.4321 53.8542 33.8428 54.4669 35.1468C55.0795 36.462 55.9282 37.6142 56.9905 38.5866C58.064 39.5589 59.323 40.3346 60.7338 40.8797C62.167 41.4418 63.7182 41.7228 65.3426 41.7228H67.4952C69.2039 41.7228 70.8338 41.4081 72.3345 40.7842C73.7228 40.2109 74.9424 39.4184 75.9654 38.4292C77.022 39.4128 78.2473 40.2053 79.6131 40.7842C81.0913 41.4081 82.7044 41.7228 84.4186 41.7228H86.5713C88.1956 41.7228 89.7469 41.4362 91.1801 40.8797C92.6133 40.3233 93.8723 39.5533 94.9234 38.5866C95.9857 37.6198 96.84 36.462 97.447 35.1524C98.0596 33.8485 98.3744 32.4377 98.3744 30.9595V3.59878H91.6916V30.9539Z" fill="white"/>
<path d="M118.232 3.59315H111.51V41.7228H118.232V3.59315Z" fill="white"/>
<path d="M79.304 15.2953H72.6099V25.0638H79.304V15.2953Z" fill="white"/>
</svg>
