<svg width="16" height="16" viewBox="0 0 16 16" fill="none" xmlns="http://www.w3.org/2000/svg">
<path d="M6.00001 14.6663H10C13.3333 14.6663 14.6667 13.333 14.6667 9.99967V5.99967C14.6667 2.66634 13.3333 1.33301 10 1.33301H6.00001C2.66668 1.33301 1.33334 2.66634 1.33334 5.99967V9.99967C1.33334 13.333 2.66668 14.6663 6.00001 14.6663Z" stroke="black" stroke-width="0.96" stroke-linecap="round" stroke-linejoin="round"/>
<path d="M7.99999 10.3337C9.28865 10.3337 10.3333 9.28899 10.3333 8.00033C10.3333 6.71166 9.28865 5.66699 7.99999 5.66699C6.71133 5.66699 5.66666 6.71166 5.66666 8.00033C5.66666 9.28899 6.71133 10.3337 7.99999 10.3337Z" stroke="black" stroke-width="0.96" stroke-linecap="round" stroke-linejoin="round"/>
<path d="M11.7574 4.66634H11.7651" stroke="black" stroke-width="0.96" stroke-linecap="round" stroke-linejoin="round"/>
</svg>
