<svg width="20" height="20" viewBox="0 0 20 20" fill="none" xmlns="http://www.w3.org/2000/svg">
<path d="M18.3333 7.10002V3.31669C18.3333 2.14169 17.8 1.66669 16.475 1.66669H13.1083C11.7833 1.66669 11.25 2.14169 11.25 3.31669V7.09169C11.25 8.27502 11.7833 8.74169 13.1083 8.74169H16.475C17.8 8.75002 18.3333 8.27502 18.3333 7.10002Z" stroke="black" stroke-width="1.3" stroke-linecap="round" stroke-linejoin="round"/>
<path d="M18.3333 16.475V13.1083C18.3333 11.7833 17.8 11.25 16.475 11.25H13.1083C11.7833 11.25 11.25 11.7833 11.25 13.1083V16.475C11.25 17.8 11.7833 18.3333 13.1083 18.3333H16.475C17.8 18.3333 18.3333 17.8 18.3333 16.475Z" stroke="black" stroke-width="1.3" stroke-linecap="round" stroke-linejoin="round"/>
<path d="M8.75033 7.10002V3.31669C8.75033 2.14169 8.21699 1.66669 6.89199 1.66669H3.52533C2.20033 1.66669 1.66699 2.14169 1.66699 3.31669V7.09169C1.66699 8.27502 2.20033 8.74169 3.52533 8.74169H6.89199C8.21699 8.75002 8.75033 8.27502 8.75033 7.10002Z" stroke="black" stroke-width="1.3" stroke-linecap="round" stroke-linejoin="round"/>
<path d="M8.75033 16.475V13.1083C8.75033 11.7833 8.21699 11.25 6.89199 11.25H3.52533C2.20033 11.25 1.66699 11.7833 1.66699 13.1083V16.475C1.66699 17.8 2.20033 18.3333 3.52533 18.3333H6.89199C8.21699 18.3333 8.75033 17.8 8.75033 16.475Z" stroke="black" stroke-width="1.3" stroke-linecap="round" stroke-linejoin="round"/>
</svg>
