<svg width="20" height="20" viewBox="0 0 20 20" fill="none" xmlns="http://www.w3.org/2000/svg">
<path d="M9.99963 11.6666H10.833C11.7496 11.6666 12.4996 10.9166 12.4996 9.99996V1.66663H4.99963C3.74963 1.66663 2.65798 2.35828 2.09131 3.37495" stroke="black" stroke-width="1.2" stroke-linecap="round" stroke-linejoin="round"/>
<path d="M1.6665 14.1666C1.6665 15.55 2.78317 16.6666 4.1665 16.6666H4.99984C4.99984 15.75 5.74984 15 6.6665 15C7.58317 15 8.33317 15.75 8.33317 16.6666H11.6665C11.6665 15.75 12.4165 15 13.3332 15C14.2498 15 14.9998 15.75 14.9998 16.6666H15.8332C17.2165 16.6666 18.3332 15.55 18.3332 14.1666V11.6666H15.8332C15.3748 11.6666 14.9998 11.2916 14.9998 10.8333V8.33329C14.9998 7.87496 15.3748 7.49996 15.8332 7.49996H16.9082L15.4832 5.0083C15.1832 4.49163 14.6332 4.16663 14.0332 4.16663H12.4998V9.99996C12.4998 10.9166 11.7498 11.6666 10.8332 11.6666H9.99984" stroke="black" stroke-width="1.2" stroke-linecap="round" stroke-linejoin="round"/>
<path d="M6.66667 18.3333C7.58714 18.3333 8.33333 17.5871 8.33333 16.6667C8.33333 15.7462 7.58714 15 6.66667 15C5.74619 15 5 15.7462 5 16.6667C5 17.5871 5.74619 18.3333 6.66667 18.3333Z" stroke="black" stroke-width="1.2" stroke-linecap="round" stroke-linejoin="round"/>
<path d="M13.3332 18.3333C14.2536 18.3333 14.9998 17.5871 14.9998 16.6667C14.9998 15.7462 14.2536 15 13.3332 15C12.4127 15 11.6665 15.7462 11.6665 16.6667C11.6665 17.5871 12.4127 18.3333 13.3332 18.3333Z" stroke="black" stroke-width="1.2" stroke-linecap="round" stroke-linejoin="round"/>
<path d="M18.3333 10V11.6667H15.8333C15.375 11.6667 15 11.2917 15 10.8333V8.33333C15 7.875 15.375 7.5 15.8333 7.5H16.9083L18.3333 10Z" stroke="black" stroke-width="1.2" stroke-linecap="round" stroke-linejoin="round"/>
<path d="M1.6665 6.66663H6.6665" stroke="black" stroke-width="1.2" stroke-linecap="round" stroke-linejoin="round"/>
<path d="M1.6665 9.16663H4.99984" stroke="black" stroke-width="1.2" stroke-linecap="round" stroke-linejoin="round"/>
<path d="M1.6665 11.6666H3.33317" stroke="black" stroke-width="1.2" stroke-linecap="round" stroke-linejoin="round"/>
</svg>
