<svg width="20" height="20" viewBox="0 0 20 20" fill="none" xmlns="http://www.w3.org/2000/svg">
<g clip-path="url(#clip0_1166_3428)">
<path d="M10 0.599609C13.7774 0.599609 16.9004 3.54559 16.9004 7.22656C16.9004 8.96526 16.1182 11.1708 14.6953 13.7432V13.7441C13.5428 15.8242 12.2124 17.6988 11.5244 18.6289L11.5234 18.6279C11.3481 18.8665 11.1196 19.0614 10.8555 19.1953C10.5907 19.3295 10.2978 19.3994 10.001 19.3994C9.70409 19.3994 9.41129 19.3295 9.14648 19.1953C8.88254 19.0615 8.65382 18.8673 8.47852 18.6289C7.78887 17.6982 6.45993 15.8238 5.30762 13.7441C3.88217 11.1708 3.09961 8.96466 3.09961 7.22656C3.09961 3.54559 6.2226 0.599609 10 0.599609ZM10.708 5.79102C10.37 5.65099 9.99754 5.61416 9.63867 5.68555C9.27996 5.75698 8.95004 5.93277 8.69141 6.19141C8.43277 6.45004 8.25698 6.77996 8.18555 7.13867C8.11416 7.49754 8.15099 7.86996 8.29102 8.20801C8.43104 8.54601 8.66846 8.83483 8.97266 9.03809C9.27656 9.24107 9.63357 9.34844 9.99902 9.34863C10.4897 9.3481 10.9607 9.15458 11.3076 8.80762C11.6544 8.46083 11.8489 7.99042 11.8496 7.5C11.8496 7.13421 11.7413 6.77683 11.5381 6.47266C11.3348 6.16846 11.046 5.93104 10.708 5.79102Z" stroke="black" stroke-width="1.3"/>
</g>
<defs>
<clipPath id="clip0_1166_3428">
<rect width="20" height="20" fill="white"/>
</clipPath>
</defs>
</svg>
