<svg width="20" height="20" viewBox="0 0 20 20" fill="none" xmlns="http://www.w3.org/2000/svg">
<path d="M4.16667 8.33301C3.25 8.33301 2.5 9.08301 2.5 9.99967C2.5 10.9163 3.25 11.6663 4.16667 11.6663C5.08333 11.6663 5.83333 10.9163 5.83333 9.99967C5.83333 9.08301 5.08333 8.33301 4.16667 8.33301Z" fill="black"/>
<path d="M15.8333 8.33301C14.9166 8.33301 14.1666 9.08301 14.1666 9.99967C14.1666 10.9163 14.9166 11.6663 15.8333 11.6663C16.75 11.6663 17.5 10.9163 17.5 9.99967C17.5 9.08301 16.75 8.33301 15.8333 8.33301Z" fill="black"/>
<path d="M10 8.33301C9.08337 8.33301 8.33337 9.08301 8.33337 9.99967C8.33337 10.9163 9.08337 11.6663 10 11.6663C10.9167 11.6663 11.6667 10.9163 11.6667 9.99967C11.6667 9.08301 10.9167 8.33301 10 8.33301Z" fill="black"/>
</svg>
