<svg width="20" height="20" viewBox="0 0 20 20" fill="none" xmlns="http://www.w3.org/2000/svg">
<path d="M17.8919 15.8334V4.16669C17.8919 2.50002 17.0586 1.66669 15.3919 1.66669H12.0586C10.3919 1.66669 9.55859 2.50002 9.55859 4.16669V15.8334C9.55859 17.5 10.3919 18.3334 12.0586 18.3334H15.3919C17.0586 18.3334 17.8919 17.5 17.8919 15.8334Z" stroke="black" stroke-width="1.3" stroke-linecap="round"/>
<path d="M9.55859 5H13.7253" stroke="black" stroke-width="1.3" stroke-linecap="round"/>
<path d="M9.55859 15H12.8919" stroke="black" stroke-width="1.3" stroke-linecap="round"/>
<path d="M9.55859 11.625L13.7253 11.6667" stroke="black" stroke-width="1.3" stroke-linecap="round"/>
<path d="M9.55859 8.33331H12.0586" stroke="black" stroke-width="1.3" stroke-linecap="round"/>
<path d="M4.57506 1.66669C3.21673 1.66669 2.1084 2.77502 2.1084 4.12502V14.925C2.1084 15.3 2.26673 15.8667 2.4584 16.1917L3.14173 17.325C3.92507 18.6334 5.21673 18.6334 6.00007 17.325L6.6834 16.1917C6.87507 15.8667 7.0334 15.3 7.0334 14.925V4.12502C7.0334 2.77502 5.92506 1.66669 4.57506 1.66669Z" stroke="black" stroke-width="1.3" stroke-linecap="round"/>
<path d="M7.0334 5.83331H2.1084" stroke="black" stroke-width="1.3" stroke-linecap="round"/>
</svg>
