<svg width="20" height="20" viewBox="0 0 20 20" fill="none" xmlns="http://www.w3.org/2000/svg">
<path d="M6.24967 4.16669H13.7497C14.2663 4.16669 14.7247 4.18335 15.133 4.24169C17.3247 4.48335 17.9163 5.51669 17.9163 8.33335V11.6667C17.9163 14.4834 17.3247 15.5167 15.133 15.7584C14.7247 15.8167 14.2663 15.8334 13.7497 15.8334H6.24967C5.73301 15.8334 5.27467 15.8167 4.86634 15.7584C2.67467 15.5167 2.08301 14.4834 2.08301 11.6667V8.33335C2.08301 5.51669 2.67467 4.48335 4.86634 4.24169C5.27467 4.18335 5.73301 4.16669 6.24967 4.16669Z" stroke="black" stroke-width="1.3" stroke-linecap="round" stroke-linejoin="round"/>
<path d="M3.75 1.66669H16.25" stroke="black" stroke-width="1.3" stroke-linecap="round" stroke-linejoin="round"/>
<path d="M4.16699 18.3333H16.667" stroke="black" stroke-width="1.3" stroke-linecap="round" stroke-linejoin="round"/>
</svg>
