<svg width="16" height="16" viewBox="0 0 16 16" fill="none" xmlns="http://www.w3.org/2000/svg">
<path d="M12 4.77301C11.96 4.76634 11.9133 4.76634 11.8733 4.77301C10.9533 4.73968 10.22 3.98634 10.22 3.05301C10.22 2.09968 10.9867 1.33301 11.94 1.33301C12.8933 1.33301 13.66 2.10634 13.66 3.05301C13.6533 3.98634 12.92 4.73968 12 4.77301Z" stroke="black" stroke-width="0.96" stroke-linecap="round" stroke-linejoin="round"/>
<path d="M11.3133 9.62645C12.2267 9.77978 13.2333 9.61978 13.94 9.14645C14.88 8.51978 14.88 7.49312 13.94 6.86645C13.2267 6.39312 12.2067 6.23311 11.2933 6.39311" stroke="black" stroke-width="0.96" stroke-linecap="round" stroke-linejoin="round"/>
<path d="M3.98001 4.77301C4.02001 4.76634 4.06667 4.76634 4.10667 4.77301C5.02667 4.73968 5.76001 3.98634 5.76001 3.05301C5.76001 2.09968 4.99334 1.33301 4.04001 1.33301C3.08668 1.33301 2.32001 2.10634 2.32001 3.05301C2.32667 3.98634 3.06001 4.73968 3.98001 4.77301Z" stroke="black" stroke-width="0.96" stroke-linecap="round" stroke-linejoin="round"/>
<path d="M4.66666 9.62645C3.75332 9.77978 2.74666 9.61978 2.03999 9.14645C1.09999 8.51978 1.09999 7.49312 2.03999 6.86645C2.75332 6.39312 3.77332 6.23311 4.68666 6.39311" stroke="black" stroke-width="0.96" stroke-linecap="round" stroke-linejoin="round"/>
<path d="M8 9.75348C7.96 9.74681 7.91333 9.74681 7.87333 9.75348C6.95333 9.72015 6.22 8.96681 6.22 8.03348C6.22 7.08014 6.98667 6.31348 7.94 6.31348C8.89333 6.31348 9.66 7.08681 9.66 8.03348C9.65333 8.96681 8.92 9.72681 8 9.75348Z" stroke="black" stroke-width="0.96" stroke-linecap="round" stroke-linejoin="round"/>
<path d="M6.06001 11.8532C5.12001 12.4799 5.12001 13.5066 6.06001 14.1332C7.12668 14.8466 8.87334 14.8466 9.94001 14.1332C10.88 13.5066 10.88 12.4799 9.94001 11.8532C8.88001 11.1466 7.12668 11.1466 6.06001 11.8532Z" stroke="black" stroke-width="0.96" stroke-linecap="round" stroke-linejoin="round"/>
</svg>
